<svg>
  <symbol xmlns="http://www.w3.org/2000/svg" viewBox="0 0 24 24" id="my-tasks" fill="none">
    <path d="M16 4C18.175 4.01211 19.3529 4.10856 20.1213 4.87694C21 5.75562 21 7.16983 21 9.99826V15.9983C21 18.8267 21 20.2409 20.1213 21.1196C19.2426 21.9983 17.8284 21.9983 15 21.9983H9C6.17157 21.9983 4.75736 21.9983 3.87868 21.1196C3 20.2409 3 18.8267 3 15.9983V9.99826C3 7.16983 3 5.75562 3.87868 4.87694C4.64706 4.10856 5.82497 4.01211 8 4" stroke="currentColor" stroke-width="1.5"/>
    <path d="M12 11.6913L11.4813 12.2331C11.7713 12.5108 12.2287 12.5108 12.5187 12.2331L12 11.6913ZM12 15.8276L12 15.0776L12 15.8276ZM11.4865 14.7609C11.0686 14.4542 10.6081 14.0712 10.2595 13.6681C9.89122 13.2423 9.75 12.9113 9.75 12.6967H8.25C8.25 13.4666 8.6912 14.1479 9.1249 14.6493C9.57819 15.1735 10.1391 15.6327 10.5992 15.9703L11.4865 14.7609ZM9.75 12.6967C9.75 12.1207 10.0126 11.87 10.2419 11.7896C10.4922 11.7019 10.9558 11.7299 11.4813 12.2331L12.5187 11.1496C11.6943 10.3603 10.6579 10.0543 9.74566 10.3741C8.81245 10.7012 8.25 11.5995 8.25 12.6967H9.75ZM13.4008 15.9703C13.8609 15.6327 14.4218 15.1735 14.8751 14.6493C15.3088 14.1479 15.75 13.4666 15.75 12.6967H14.25C14.25 12.9113 14.1088 13.2423 13.7405 13.6681C13.3919 14.0713 12.9314 14.4542 12.5135 14.7609L13.4008 15.9703ZM15.75 12.6967C15.75 11.5995 15.1875 10.7012 14.2543 10.3741C13.3421 10.0543 12.3057 10.3603 11.4813 11.1496L12.5187 12.2331C13.0442 11.7299 13.5078 11.7019 13.7581 11.7896C13.9874 11.87 14.25 12.1207 14.25 12.6967H15.75ZM10.5992 15.9703C10.9678 16.2407 11.3816 16.5775 12 16.5776L12 15.0776C11.9756 15.0776 11.9605 15.0775 11.9061 15.0488C11.8202 15.0034 11.7128 14.9269 11.4865 14.7609L10.5992 15.9703ZM12.5135 14.7609C12.2872 14.9269 12.1798 15.0034 12.0939 15.0488C12.0395 15.0775 12.0244 15.0776 12 15.0776L12 16.5776C12.6184 16.5776 13.0322 16.2407 13.4008 15.9703L12.5135 14.7609Z" fill="currentColor"/>
    <path d="M8 3.5C8 2.67157 8.67157 2 9.5 2H14.5C15.3284 2 16 2.67157 16 3.5V4.5C16 5.32843 15.3284 6 14.5 6H9.5C8.67157 6 8 5.32843 8 4.5V3.5Z" stroke="currentColor" stroke-width="1.5"/>
  </symbol>

  <symbol xmlns="http://www.w3.org/2000/svg" viewBox="0 0 24 24" id="my-tasks-active" fill="none">
    <path d="M9.5 2C8.67157 2 8 2.67157 8 3.5V4.5C8 5.32843 8.67157 6 9.5 6H14.5C15.3284 6 16 5.32843 16 4.5V3.5C16 2.67157 15.3284 2 14.5 2H9.5Z" fill="currentColor"/>
    <path fill-rule="evenodd" clip-rule="evenodd" d="M6.5 4.03662C5.24209 4.10719 4.44798 4.30764 3.87868 4.87694C3 5.75562 3 7.16983 3 9.99826V15.9983C3 18.8267 3 20.2409 3.87868 21.1196C4.75736 21.9983 6.17157 21.9983 9 21.9983H15C17.8284 21.9983 19.2426 21.9983 20.1213 21.1196C21 20.2409 21 18.8267 21 15.9983V9.99826C21 7.16983 21 5.75562 20.1213 4.87694C19.552 4.30764 18.7579 4.10719 17.5 4.03662V4.5C17.5 6.15685 16.1569 7.5 14.5 7.5H9.5C7.84315 7.5 6.5 6.15685 6.5 4.5V4.03662ZM11.0429 15.3656C10.1649 14.7213 9 13.6812 9 12.6967C9 11.0235 10.65 10.3988 12 11.6913C13.35 10.3988 15 11.0235 15 12.6967C15 13.6812 13.8352 14.7214 12.9571 15.3656C12.5374 15.6736 12.3275 15.8276 12 15.8276C11.6725 15.8276 11.4626 15.6736 11.0429 15.3656Z" fill="currentColor"/>
  </symbol>

  <symbol xmlns="http://www.w3.org/2000/svg" viewBox="0 0 24 24" id="tasks" fill="none">
    <path d="M16 4.00195C18.175 4.01406 19.3529 4.11051 20.1213 4.87889C21 5.75757 21 7.17179 21 10.0002V16.0002C21 18.8286 21 20.2429 20.1213 21.1215C19.2426 22.0002 17.8284 22.0002 15 22.0002H9C6.17157 22.0002 4.75736 22.0002 3.87868 21.1215C3 20.2429 3 18.8286 3 16.0002V10.0002C3 7.17179 3 5.75757 3.87868 4.87889C4.64706 4.11051 5.82497 4.01406 8 4.00195" stroke="currentColor" stroke-width="1.5"/>
    <path d="M10.5 14L17 14" stroke="currentColor" stroke-width="1.5" stroke-linecap="round"/>
    <path d="M7 14H7.5" stroke="currentColor" stroke-width="1.5" stroke-linecap="round"/>
    <path d="M7 10.5H7.5" stroke="currentColor" stroke-width="1.5" stroke-linecap="round"/>
    <path d="M7 17.5H7.5" stroke="currentColor" stroke-width="1.5" stroke-linecap="round"/>
    <path d="M10.5 10.5H17" stroke="currentColor" stroke-width="1.5" stroke-linecap="round"/>
    <path d="M10.5 17.5H17" stroke="currentColor" stroke-width="1.5" stroke-linecap="round"/>
    <path d="M8 3.5C8 2.67157 8.67157 2 9.5 2H14.5C15.3284 2 16 2.67157 16 3.5V4.5C16 5.32843 15.3284 6 14.5 6H9.5C8.67157 6 8 5.32843 8 4.5V3.5Z" stroke="currentColor" stroke-width="1.5"/>
  </symbol>

  <symbol xmlns="http://www.w3.org/2000/svg" viewBox="0 0 24 24" id="tasks-active" fill="none">
    <path d="M9.5 2C8.67157 2 8 2.67157 8 3.5V4.5C8 5.32843 8.67157 6 9.5 6H14.5C15.3284 6 16 5.32843 16 4.5V3.5C16 2.67157 15.3284 2 14.5 2H9.5Z" fill="currentColor"/>
    <path fill-rule="evenodd" clip-rule="evenodd" d="M6.5 4.03662C5.24209 4.10719 4.44798 4.30764 3.87868 4.87694C3 5.75562 3 7.16983 3 9.99826V15.9983C3 18.8267 3 20.2409 3.87868 21.1196C4.75736 21.9983 6.17157 21.9983 9 21.9983H15C17.8284 21.9983 19.2426 21.9983 20.1213 21.1196C21 20.2409 21 18.8267 21 15.9983V9.99826C21 7.16983 21 5.75562 20.1213 4.87694C19.552 4.30764 18.7579 4.10719 17.5 4.03662V4.5C17.5 6.15685 16.1569 7.5 14.5 7.5H9.5C7.84315 7.5 6.5 6.15685 6.5 4.5V4.03662ZM7 9.75C6.58579 9.75 6.25 10.0858 6.25 10.5C6.25 10.9142 6.58579 11.25 7 11.25H7.5C7.91421 11.25 8.25 10.9142 8.25 10.5C8.25 10.0858 7.91421 9.75 7.5 9.75H7ZM10.5 9.75C10.0858 9.75 9.75 10.0858 9.75 10.5C9.75 10.9142 10.0858 11.25 10.5 11.25H17C17.4142 11.25 17.75 10.9142 17.75 10.5C17.75 10.0858 17.4142 9.75 17 9.75H10.5ZM7 13.25C6.58579 13.25 6.25 13.5858 6.25 14C6.25 14.4142 6.58579 14.75 7 14.75H7.5C7.91421 14.75 8.25 14.4142 8.25 14C8.25 13.5858 7.91421 13.25 7.5 13.25H7ZM10.5 13.25C10.0858 13.25 9.75 13.5858 9.75 14C9.75 14.4142 10.0858 14.75 10.5 14.75H17C17.4142 14.75 17.75 14.4142 17.75 14C17.75 13.5858 17.4142 13.25 17 13.25H10.5ZM7 16.75C6.58579 16.75 6.25 17.0858 6.25 17.5C6.25 17.9142 6.58579 18.25 7 18.25H7.5C7.91421 18.25 8.25 17.9142 8.25 17.5C8.25 17.0858 7.91421 16.75 7.5 16.75H7ZM10.5 16.75C10.0858 16.75 9.75 17.0858 9.75 17.5C9.75 17.9142 10.0858 18.25 10.5 18.25H17C17.4142 18.25 17.75 17.9142 17.75 17.5C17.75 17.0858 17.4142 16.75 17 16.75H10.5Z" fill="currentColor"/>
  </symbol>

  <symbol xmlns="http://www.w3.org/2000/svg" viewBox="0 0 24 24" id="requests" fill="none">
    <path d="M7.50626 15.2647C7.61657 15.6639 8.02965 15.8982 8.4289 15.7879C8.82816 15.6776 9.06241 15.2645 8.9521 14.8652L7.50626 15.2647ZM6.07692 7.27442L6.79984 7.0747V7.0747L6.07692 7.27442ZM4.7037 5.91995L4.50319 6.64265L4.7037 5.91995ZM3.20051 4.72457C2.80138 4.61383 2.38804 4.84762 2.2773 5.24675C2.16656 5.64589 2.40035 6.05923 2.79949 6.16997L3.20051 4.72457ZM20.1886 15.7254C20.5895 15.6213 20.8301 15.2118 20.7259 14.8109C20.6217 14.41 20.2123 14.1695 19.8114 14.2737L20.1886 15.7254ZM10.1978 17.5588C10.5074 18.6795 9.82778 19.8618 8.62389 20.1747L9.00118 21.6265C10.9782 21.1127 12.1863 19.1239 11.6436 17.1594L10.1978 17.5588ZM8.62389 20.1747C7.41216 20.4896 6.19622 19.7863 5.88401 18.6562L4.43817 19.0556C4.97829 21.0107 7.03196 22.1383 9.00118 21.6265L8.62389 20.1747ZM5.88401 18.6562C5.57441 17.5355 6.254 16.3532 7.4579 16.0403L7.08061 14.5885C5.10356 15.1023 3.89544 17.0911 4.43817 19.0556L5.88401 18.6562ZM7.4579 16.0403C8.66962 15.7254 9.88556 16.4287 10.1978 17.5588L11.6436 17.1594C11.1035 15.2043 9.04982 14.0768 7.08061 14.5885L7.4579 16.0403ZM8.9521 14.8652L6.79984 7.0747L5.354 7.47414L7.50626 15.2647L8.9521 14.8652ZM4.90421 5.19725L3.20051 4.72457L2.79949 6.16997L4.50319 6.64265L4.90421 5.19725ZM6.79984 7.0747C6.54671 6.15847 5.8211 5.45164 4.90421 5.19725L4.50319 6.64265C4.92878 6.76073 5.24573 7.08223 5.354 7.47414L6.79984 7.0747ZM11.1093 18.085L20.1886 15.7254L19.8114 14.2737L10.732 16.6332L11.1093 18.085Z" fill="currentColor"/>
    <path d="M9.56541 8.73049C9.0804 6.97492 8.8379 6.09714 9.24954 5.40562C9.66119 4.71409 10.5662 4.47889 12.3763 4.00849L14.2962 3.50955C16.1062 3.03915 17.0113 2.80394 17.7242 3.20319C18.4372 3.60244 18.6797 4.48023 19.1647 6.2358L19.6792 8.09786C20.1642 9.85343 20.4067 10.7312 19.995 11.4227C19.5834 12.1143 18.6784 12.3495 16.8683 12.8199L14.9484 13.3188C13.1384 13.7892 12.2333 14.0244 11.5203 13.6252C10.8073 13.2259 10.5648 12.3481 10.0798 10.5926L9.56541 8.73049Z" stroke="currentColor" stroke-width="1.5"/>
  </symbol>

  <symbol xmlns="http://www.w3.org/2000/svg" viewBox="0 0 24 24" id="requests-active">
    <path d="M9.56443 8.73049L10.0789 10.5926C10.5639 12.3481 10.8064 13.2259 11.5194 13.6252C12.2323 14.0244 13.1374 13.7892 14.9474 13.3188L16.8673 12.8199C18.6774 12.3495 19.5824 12.1143 19.9941 11.4227C20.4057 10.7312 20.1632 9.85344 19.6782 8.09788L19.1638 6.2358C18.6788 4.48023 18.4363 3.60244 17.7233 3.20319C17.0103 2.80394 16.1052 3.03915 14.2952 3.50955L12.3753 4.00849C10.5652 4.47889 9.66021 4.71409 9.24856 5.40562C8.83692 6.09714 9.07943 6.97493 9.56443 8.73049Z" fill="currentColor"/>
    <path d="M2.27749 5.24694C2.38823 4.84781 2.80157 4.61402 3.2007 4.72476L4.9044 5.19744C5.82129 5.45183 6.5469 6.15866 6.80003 7.07489L8.95106 14.8609L9.10935 15.4075C9.74249 15.6438 10.2863 16.0866 10.6314 16.6747L10.9414 16.579L19.8115 14.2739C20.2124 14.1697 20.6219 14.4102 20.7261 14.8111C20.8303 15.212 20.5897 15.6214 20.1888 15.7256L11.3515 18.0223L11.0228 18.1238C11.0161 19.3947 10.1392 20.5555 8.81236 20.9003C7.22189 21.3136 5.58709 20.3982 5.16092 18.8556C4.73476 17.313 5.67861 15.7274 7.26908 15.3141C7.3479 15.2936 7.42682 15.2764 7.5057 15.2623L5.35419 7.47433C5.24592 7.08242 4.92897 6.76092 4.50338 6.64284L2.79968 6.17016C2.40054 6.05942 2.16675 5.64608 2.27749 5.24694Z" fill="currentColor"/>
  </symbol>

  <symbol viewBox="0 0 24 24" fill="none" xmlns="http://www.w3.org/2000/svg" id="settings">
    <circle cx="12" cy="12" r="3" stroke="currentColor" stroke-width="1.5"/>
    <path d="M13.7654 2.15224C13.3978 2 12.9319 2 12 2C11.0681 2 10.6022 2 10.2346 2.15224C9.74457 2.35523 9.35522 2.74458 9.15223 3.23463C9.05957 3.45834 9.0233 3.7185 9.00911 4.09799C8.98826 4.65568 8.70226 5.17189 8.21894 5.45093C7.73564 5.72996 7.14559 5.71954 6.65219 5.45876C6.31645 5.2813 6.07301 5.18262 5.83294 5.15102C5.30704 5.08178 4.77518 5.22429 4.35436 5.5472C4.03874 5.78938 3.80577 6.1929 3.33983 6.99993C2.87389 7.80697 2.64092 8.21048 2.58899 8.60491C2.51976 9.1308 2.66227 9.66266 2.98518 10.0835C3.13256 10.2756 3.3397 10.437 3.66119 10.639C4.1338 10.936 4.43789 11.4419 4.43786 12C4.43783 12.5581 4.13375 13.0639 3.66118 13.3608C3.33965 13.5629 3.13248 13.7244 2.98508 13.9165C2.66217 14.3373 2.51966 14.8691 2.5889 15.395C2.64082 15.7894 2.87379 16.193 3.33973 17C3.80568 17.807 4.03865 18.2106 4.35426 18.4527C4.77508 18.7756 5.30694 18.9181 5.83284 18.8489C6.07289 18.8173 6.31632 18.7186 6.65204 18.5412C7.14547 18.2804 7.73556 18.27 8.2189 18.549C8.70224 18.8281 8.98826 19.3443 9.00911 19.9021C9.02331 20.2815 9.05957 20.5417 9.15223 20.7654C9.35522 21.2554 9.74457 21.6448 10.2346 21.8478C10.6022 22 11.0681 22 12 22C12.9319 22 13.3978 22 13.7654 21.8478C14.2554 21.6448 14.6448 21.2554 14.8477 20.7654C14.9404 20.5417 14.9767 20.2815 14.9909 19.902C15.0117 19.3443 15.2977 18.8281 15.781 18.549C16.2643 18.2699 16.8544 18.2804 17.3479 18.5412C17.6836 18.7186 17.927 18.8172 18.167 18.8488C18.6929 18.9181 19.2248 18.7756 19.6456 18.4527C19.9612 18.2105 20.1942 17.807 20.6601 16.9999C21.1261 16.1929 21.3591 15.7894 21.411 15.395C21.4802 14.8691 21.3377 14.3372 21.0148 13.9164C20.8674 13.7243 20.6602 13.5628 20.3387 13.3608C19.8662 13.0639 19.5621 12.558 19.5621 11.9999C19.5621 11.4418 19.8662 10.9361 20.3387 10.6392C20.6603 10.4371 20.8675 10.2757 21.0149 10.0835C21.3378 9.66273 21.4803 9.13087 21.4111 8.60497C21.3592 8.21055 21.1262 7.80703 20.6602 7C20.1943 6.19297 19.9613 5.78945 19.6457 5.54727C19.2249 5.22436 18.693 5.08185 18.1671 5.15109C17.9271 5.18269 17.6837 5.28136 17.3479 5.4588C16.8545 5.71959 16.2644 5.73002 15.7811 5.45096C15.2977 5.17191 15.0117 4.65566 14.9909 4.09794C14.9767 3.71848 14.9404 3.45833 14.8477 3.23463C14.6448 2.74458 14.2554 2.35523 13.7654 2.15224Z" stroke="currentColor" stroke-width="1.5"/>
  </symbol>

  <symbol viewBox="0 0 24 24" fill="none" xmlns="http://www.w3.org/2000/svg" id="settings-active">
    <path fill-rule="evenodd" clip-rule="evenodd" d="M14.2788 2.15224C13.9085 2 13.439 2 12.5 2C11.561 2 11.0915 2 10.7212 2.15224C10.2274 2.35523 9.83509 2.74458 9.63056 3.23463C9.53719 3.45834 9.50065 3.7185 9.48635 4.09799C9.46534 4.65568 9.17716 5.17189 8.69017 5.45093C8.20318 5.72996 7.60864 5.71954 7.11149 5.45876C6.77318 5.2813 6.52789 5.18262 6.28599 5.15102C5.75609 5.08178 5.22018 5.22429 4.79616 5.5472C4.47814 5.78938 4.24339 6.1929 3.7739 6.99993C3.30441 7.80697 3.06967 8.21048 3.01735 8.60491C2.94758 9.1308 3.09118 9.66266 3.41655 10.0835C3.56506 10.2756 3.77377 10.437 4.0977 10.639C4.57391 10.936 4.88032 11.4419 4.88029 12C4.88026 12.5581 4.57386 13.0639 4.0977 13.3608C3.77372 13.5629 3.56497 13.7244 3.41645 13.9165C3.09108 14.3373 2.94749 14.8691 3.01725 15.395C3.06957 15.7894 3.30432 16.193 3.7738 17C4.24329 17.807 4.47804 18.2106 4.79606 18.4527C5.22008 18.7756 5.75599 18.9181 6.28589 18.8489C6.52778 18.8173 6.77305 18.7186 7.11133 18.5412C7.60852 18.2804 8.2031 18.27 8.69012 18.549C9.17714 18.8281 9.46533 19.3443 9.48635 19.9021C9.50065 20.2815 9.53719 20.5417 9.63056 20.7654C9.83509 21.2554 10.2274 21.6448 10.7212 21.8478C11.0915 22 11.561 22 12.5 22C13.439 22 13.9085 22 14.2788 21.8478C14.7726 21.6448 15.1649 21.2554 15.3694 20.7654C15.4628 20.5417 15.4994 20.2815 15.5137 19.902C15.5347 19.3443 15.8228 18.8281 16.3098 18.549C16.7968 18.2699 17.3914 18.2804 17.8886 18.5412C18.2269 18.7186 18.4721 18.8172 18.714 18.8488C19.2439 18.9181 19.7798 18.7756 20.2038 18.4527C20.5219 18.2105 20.7566 17.807 21.2261 16.9999C21.6956 16.1929 21.9303 15.7894 21.9827 15.395C22.0524 14.8691 21.9088 14.3372 21.5835 13.9164C21.4349 13.7243 21.2262 13.5628 20.9022 13.3608C20.4261 13.0639 20.1197 12.558 20.1197 11.9999C20.1197 11.4418 20.4261 10.9361 20.9022 10.6392C21.2263 10.4371 21.435 10.2757 21.5836 10.0835C21.9089 9.66273 22.0525 9.13087 21.9828 8.60497C21.9304 8.21055 21.6957 7.80703 21.2262 7C20.7567 6.19297 20.522 5.78945 20.2039 5.54727C19.7799 5.22436 19.244 5.08185 18.7141 5.15109C18.4722 5.18269 18.2269 5.28136 17.8887 5.4588C17.3915 5.71959 16.7969 5.73002 16.3099 5.45096C15.8229 5.17191 15.5347 4.65566 15.5136 4.09794C15.4993 3.71848 15.4628 3.45833 15.3694 3.23463C15.1649 2.74458 14.7726 2.35523 14.2788 2.15224ZM12.5 15C14.1695 15 15.5228 13.6569 15.5228 12C15.5228 10.3431 14.1695 9 12.5 9C10.8305 9 9.47716 10.3431 9.47716 12C9.47716 13.6569 10.8305 15 12.5 15Z" fill="currentColor"/>
  </symbol>

  <symbol viewBox="0 0 24 24" fill="none" xmlns="http://www.w3.org/2000/svg" id="help">
    <circle cx="12" cy="12" r="10" stroke="currentColor" stroke-width="1.5"/>
    <path d="M10.125 8.875C10.125 7.83947 10.9645 7 12 7C13.0355 7 13.875 7.83947 13.875 8.875C13.875 9.56245 13.505 10.1635 12.9534 10.4899C12.478 10.7711 12 11.1977 12 11.75V13" stroke="currentColor" stroke-width="1.5" stroke-linecap="round"/>
    <circle cx="12" cy="16" r="1" fill="currentColor"/>
  </symbol>

  <symbol viewBox="0 0 24 24" fill="none" xmlns="http://www.w3.org/2000/svg" id="help-active">
    <path fill-rule="evenodd" clip-rule="evenodd" d="M22 12C22 17.5228 17.5228 22 12 22C6.47715 22 2 17.5228 2 12C2 6.47715 6.47715 2 12 2C17.5228 2 22 6.47715 22 12ZM12 7.75C11.3787 7.75 10.875 8.25368 10.875 8.875C10.875 9.28921 10.5392 9.625 10.125 9.625C9.71079 9.625 9.375 9.28921 9.375 8.875C9.375 7.42525 10.5503 6.25 12 6.25C13.4497 6.25 14.625 7.42525 14.625 8.875C14.625 9.58584 14.3415 10.232 13.883 10.704C13.7907 10.7989 13.7027 10.8869 13.6187 10.9708C13.4029 11.1864 13.2138 11.3753 13.0479 11.5885C12.8289 11.8699 12.75 12.0768 12.75 12.25V13C12.75 13.4142 12.4142 13.75 12 13.75C11.5858 13.75 11.25 13.4142 11.25 13V12.25C11.25 11.5948 11.555 11.0644 11.8642 10.6672C12.0929 10.3733 12.3804 10.0863 12.6138 9.85346C12.6842 9.78321 12.7496 9.71789 12.807 9.65877C13.0046 9.45543 13.125 9.18004 13.125 8.875C13.125 8.25368 12.6213 7.75 12 7.75ZM12 17C12.5523 17 13 16.5523 13 16C13 15.4477 12.5523 15 12 15C11.4477 15 11 15.4477 11 16C11 16.5523 11.4477 17 12 17Z" fill="currentColor"/>
  </symbol>
  
  <symbol viewBox="0 0 24 24" fill="none" xmlns="http://www.w3.org/2000/svg" id="users">
    <path d="M19 21C19 17.134 15.866 14 12 14C8.13401 14 5 17.134 5 21M12 11C9.79086 11 8 9.20914 8 7C8 4.79086 9.79086 3 12 3C14.2091 3 16 4.79086 16 7C16 9.20914 14.2091 11 12 11Z" stroke="currentColor" stroke-width="1.5" stroke-linecap="round" stroke-linejoin="round"/>
  </symbol>
  
  <symbol viewBox="0 0 24 24" fill="none" xmlns="http://www.w3.org/2000/svg" id="users-active">
    <path d="M12 11C14.2091 11 16 9.20914 16 7C16 4.79086 14.2091 3 12 3C9.79086 3 8 4.79086 8 7C8 9.20914 9.79086 11 12 11Z" fill="currentColor"/>
    <path d="M12 14C8.13401 14 5 17.134 5 21H19C19 17.134 15.866 14 12 14Z" fill="currentColor"/>
  </symbol>
</svg>
